<svg width="256" height="256" viewBox="0 0 256 256" fill="none" xmlns="http://www.w3.org/2000/svg">
    <circle cx="128" cy="128" r="128" fill="#FFC331" />
    <path
        d="M72.816 179V106.136H45.888V85.4H124.512V106.136H97.584V179H72.816ZM170.968 180.728C164.824 180.728 158.536 179.672 152.104 177.56C145.768 175.352 139.96 171.944 134.68 167.336L148.792 150.344C152.344 153.032 156.136 155.24 160.168 156.968C164.2 158.6 168.376 159.416 172.696 159.416C176.44 159.416 179.08 158.888 180.616 157.832C182.248 156.776 183.064 155.48 183.064 153.944C183.064 152.6 182.728 151.496 182.056 150.632C181.48 149.672 180.616 148.856 179.464 148.184C178.312 147.416 176.872 146.696 175.144 146.024C173.512 145.352 171.64 144.584 169.528 143.72L157.864 138.824C155.176 137.864 152.632 136.616 150.232 135.08C147.832 133.448 145.72 131.576 143.896 129.464C142.168 127.256 140.776 124.76 139.72 121.976C138.664 119.192 138.136 116.12 138.136 112.76C138.136 108.728 139 104.984 140.728 101.528C142.456 97.976 144.856 94.904 147.928 92.312C151.096 89.624 154.84 87.512 159.16 85.976C163.576 84.44 168.472 83.672 173.848 83.672C179.416 83.672 184.984 84.68 190.552 86.696C196.12 88.712 201.208 91.88 205.816 96.2L193.432 111.752C190.072 109.544 186.808 107.864 183.64 106.712C180.568 105.56 176.824 104.984 172.408 104.984C169.624 104.984 167.368 105.512 165.64 106.568C164.008 107.528 163.192 109.112 163.192 111.32C163.192 112.376 163.528 113.336 164.2 114.2C164.872 114.968 165.832 115.688 167.08 116.36C168.328 117.032 169.864 117.704 171.688 118.376C173.512 119.048 175.576 119.816 177.88 120.68L188.68 125.144C195.016 127.448 199.864 130.664 203.224 134.792C206.68 138.92 208.408 144.248 208.408 150.776C208.408 154.712 207.592 158.504 205.96 162.152C204.328 165.8 201.928 169.016 198.76 171.8C195.592 174.488 191.656 176.648 186.952 178.28C182.344 179.912 177.016 180.728 170.968 180.728Z"
        fill="#37322E" />
</svg>